<svg xmlns="http://www.w3.org/2000/svg" viewBox="0 0 1200 630" fill="none">
  <defs>
    <linearGradient id="bgG" x1="0" y1="0" x2="1200" y2="630" gradientUnits="userSpaceOnUse">
      <stop offset="0%" stop-color="#2d1b69"/>
      <stop offset="55%" stop-color="#7c2d72"/>
      <stop offset="100%" stop-color="#9d174d"/>
    </linearGradient>
    <linearGradient id="tealG" x1="0" y1="0" x2="0" y2="1">
      <stop offset="0%" stop-color="#0d9488"/>
      <stop offset="100%" stop-color="#06b6d4"/>
    </linearGradient>
  </defs>
  <rect width="1200" height="630" fill="url(#bgG)"/>
  <!-- Subtle grid -->
  <g opacity="0.04" stroke="white" stroke-width="1">
    <line x1="0" y1="105" x2="1200" y2="105"/><line x1="0" y1="210" x2="1200" y2="210"/>
    <line x1="0" y1="315" x2="1200" y2="315"/><line x1="0" y1="420" x2="1200" y2="420"/>
    <line x1="0" y1="525" x2="1200" y2="525"/>
    <line x1="150" y1="0" x2="150" y2="630"/><line x1="300" y1="0" x2="300" y2="630"/>
    <line x1="450" y1="0" x2="450" y2="630"/><line x1="600" y1="0" x2="600" y2="630"/>
    <line x1="750" y1="0" x2="750" y2="630"/><line x1="900" y1="0" x2="900" y2="630"/>
    <line x1="1050" y1="0" x2="1050" y2="630"/>
  </g>
  <!-- 10 checklist bars (left) -->
  <g>
    <circle cx="100" cy="97"  r="10" fill="url(#tealG)" opacity="0.85"/>
    <rect x="125" y="88"  width="380" height="18" rx="9" fill="white" opacity="0.10"/>
    <circle cx="100" cy="148" r="10" fill="url(#tealG)" opacity="0.85"/>
    <rect x="125" y="139" width="320" height="18" rx="9" fill="white" opacity="0.10"/>
    <circle cx="100" cy="199" r="10" fill="url(#tealG)" opacity="0.85"/>
    <rect x="125" y="190" width="410" height="18" rx="9" fill="white" opacity="0.10"/>
    <circle cx="100" cy="250" r="10" fill="url(#tealG)" opacity="0.85"/>
    <rect x="125" y="241" width="290" height="18" rx="9" fill="white" opacity="0.10"/>
    <circle cx="100" cy="301" r="10" fill="url(#tealG)" opacity="0.85"/>
    <rect x="125" y="292" width="360" height="18" rx="9" fill="white" opacity="0.10"/>
    <circle cx="100" cy="352" r="10" fill="url(#tealG)" opacity="0.75"/>
    <rect x="125" y="343" width="400" height="18" rx="9" fill="white" opacity="0.08"/>
    <circle cx="100" cy="403" r="10" fill="url(#tealG)" opacity="0.75"/>
    <rect x="125" y="394" width="340" height="18" rx="9" fill="white" opacity="0.08"/>
    <circle cx="100" cy="454" r="10" fill="url(#tealG)" opacity="0.75"/>
    <rect x="125" y="445" width="420" height="18" rx="9" fill="white" opacity="0.08"/>
    <circle cx="100" cy="505" r="10" fill="url(#tealG)" opacity="0.65"/>
    <rect x="125" y="496" width="310" height="18" rx="9" fill="white" opacity="0.07"/>
    <circle cx="100" cy="556" r="10" fill="url(#tealG)" opacity="0.65"/>
    <rect x="125" y="547" width="370" height="18" rx="9" fill="white" opacity="0.07"/>
  </g>
  <!-- Vertical connector line -->
  <line x1="100" y1="85" x2="100" y2="568" stroke="url(#tealG)" stroke-width="1.5" opacity="0.25"/>
  <!-- Large diamond outline (right) -->
  <polygon points="920,90 1140,315 920,540 700,315" stroke="white" stroke-width="1" fill="none" opacity="0.08"/>
  <polygon points="920,140 1090,315 920,490 750,315" stroke="#0d9488" stroke-width="1.5" fill="none" opacity="0.30"/>
  <polygon points="920,200 1030,315 920,430 810,315" stroke="#06b6d4" stroke-width="1" fill="none" opacity="0.20"/>
  <!-- Teal accent dots (right area) -->
  <circle cx="920" cy="315" r="14" fill="#0d9488" opacity="0.40"/>
  <circle cx="750" cy="315" r="6"  fill="#06b6d4" opacity="0.50"/>
  <circle cx="1090" cy="315" r="6" fill="#06b6d4" opacity="0.50"/>
  <circle cx="920" cy="140" r="6"  fill="#0d9488" opacity="0.45"/>
  <circle cx="920" cy="490" r="6"  fill="#0d9488" opacity="0.45"/>
  <!-- Corner accent circles -->
  <circle cx="1160" cy="50"  r="40" stroke="white" stroke-width="1" fill="none" opacity="0.06"/>
  <circle cx="1160" cy="50"  r="22" fill="white" opacity="0.04"/>
  <circle cx="40"   cy="590" r="30" stroke="white" stroke-width="1" fill="none" opacity="0.06"/>
</svg>
